<!DOCTYPE svg PUBLIC "-//W3C//DTD SVG 1.1//EN" "http://www.w3.org/Graphics/SVG/1.1/DTD/svg11.dtd">
<!-- Uploaded to: SVG Repo, www.svgrepo.com, Transformed by: SVG Repo Mixer Tools -->
<svg version="1.1" id="Layer_1" xmlns="http://www.w3.org/2000/svg" xmlns:xlink="http://www.w3.org/1999/xlink" viewBox="0 0 490.038 490.038" xml:space="preserve" width="64px" height="64px" fill="#000000">
<g id="SVGRepo_bgCarrier" stroke-width="0"/>
<g id="SVGRepo_tracerCarrier" stroke-linecap="round" stroke-linejoin="round"/>
<g id="SVGRepo_iconCarrier"> <g id="XMLID_954_"> <g id="XMLID_1142_"> <path style="fill:#F9B233;" d="M180.201,129.935c-23.865,0-43.212-19.347-43.212-43.212c0-23.866,19.347-43.212,43.212-43.212"/> </g> <g id="XMLID_1074_"> <path style="fill:#BE1622;" d="M324.242,454.028c0,0-75.62-45.864-93.627-64.819c-16.203-17.056-43.212-79.223-43.212-79.223 V75.919c0-37.787,30.633-68.42,68.42-68.42l0,0c37.787,0,68.419,30.632,68.419,68.42V454.028z"/> </g> <g id="XMLID_1137_"> <path style="fill:#BE1622;" d="M324.242,454.028c0,0-75.62-45.864-93.627-64.819c-16.203-17.056-43.212-79.223-43.212-79.223 l-7.202-93.627h144.041"/> </g> <g id="XMLID_953_"> <path style="fill:#CB454E;" d="M237.816,403.613l-50.415-79.223V57.914c0-27.843,22.571-50.414,50.414-50.414l0,0L237.816,403.613 L237.816,403.613z"/> </g> <g id="XMLID_702_"> <path style="fill:#3AAA35;" d="M360.252,396.411l-108.031-93.627v-75.622c0-29.832,24.184-54.015,54.015-54.015l0,0 c29.832,0,54.015,24.184,54.015,54.015L360.252,396.411L360.252,396.411z"/> </g> <g id="XMLID_1138_"> <circle style="fill:#EEEEEE;" cx="252.22" cy="79.52" r="36.01"/> </g> <g id="XMLID_1141_"> <polygon style="fill:#F9B233;" points="360.252,396.411 317.04,360.401 317.04,173.147 360.252,209.158 "/> </g> <path style="fill:#1D1D1B;" d="M252.22,36.01c-23.991,0-43.51,19.519-43.51,43.51s19.519,43.51,43.51,43.51 c23.992,0,43.511-19.519,43.511-43.51S276.213,36.01,252.22,36.01z M252.22,108.031c-13.125,0-24.2-8.918-27.502-21.01h13.098v-15 h-13.098c3.302-12.093,14.377-21.01,27.502-21.01c15.721,0,28.511,12.79,28.511,28.51S267.941,108.031,252.22,108.031z"/> <g id="XMLID_435_"> <rect x="266.327" y="302.784" style="fill:#1D1D1B;" width="15" height="28.809"/> </g> <g id="XMLID_436_"> <rect x="287.934" y="324.391" style="fill:#1D1D1B;" width="15" height="28.808"/> </g> <g id="XMLID_437_"> <rect x="309.54" y="345.996" style="fill:#1D1D1B;" width="15" height="28.809"/> </g> <g id="XMLID_438_"> <rect x="331.145" y="360.401" style="fill:#1D1D1B;" width="15" height="28.808"/> </g> <g id="XMLID_439_"> <rect x="244.72" y="410.815" style="fill:#1D1D1B;" width="15" height="50.414"/> </g> <g id="XMLID_440_"> <path style="fill:#1D1D1B;" d="M295.73,490.038h-15c0-15.721-12.79-28.51-28.511-28.51c-15.721,0-28.51,12.789-28.51,28.51h-15 c0-23.992,19.519-43.51,43.51-43.51C276.213,446.528,295.73,466.046,295.73,490.038z"/> </g> <path style="fill:#1D1D1B;" d="M331.742,171.206V79.521C331.742,35.673,296.069,0,252.22,0c-30.771,0-57.496,17.58-70.711,43.212 h-8.512c-27.963,0-50.712,22.75-50.712,50.712v7.5h15.065c3.14,17.99,17.36,32.209,35.349,35.35V256.69 c0,75.591,41.146,145.179,107.38,181.608l51.662,28.414v-70.301h-15v44.932l-29.434-16.189 c-61.44-33.792-99.608-98.344-99.608-168.464v-32.83h57.112c-0.058,1.094-0.091,2.195-0.091,3.303v90.026h15v-90.026 c0-25.648,20.867-46.515,46.516-46.515s46.516,20.867,46.516,46.515v176.451h15V227.163 C367.752,202.339,352.964,180.919,331.742,171.206z M172.997,58.212h2.625c-1.891,6.787-2.923,13.927-2.923,21.308v6.904h-34.622 C141.533,70.322,155.879,58.212,172.997,58.212z M152.699,101.425h20.001v20.002C162.999,118.778,155.346,111.126,152.699,101.425z M247.501,208.86h-59.801V79.521c0-35.577,28.945-64.521,64.522-64.521s64.521,28.944,64.521,64.521v87.043 c-3.417-0.591-6.923-0.916-10.506-0.916C278.688,165.647,255.311,183.85,247.501,208.86z"/> </g> </g>
</svg>